<svg   width="16px"   height="16px"  viewBox="0 0 16 16" version="1.1" xmlns="http://www.w3.org/2000/svg" xmlns:xlink="http://www.w3.org/1999/xlink">
    <title>即时通信IM-16px</title>
    <g id="即时通信IM-16px" stroke="none" stroke-width="1" fill="none" fill-rule="evenodd">
        <g id="Group">
            <path d="M8,1 C12.3870031,1 16,4.09685446 16,8 C16,11.9031455 12.3870031,15 8,15 C6.73298747,15 5.50622152,14.7420296 4.39955102,14.2541123 L1.15535534,14.794667 L1.15535534,11.6292925 C0.406230799,10.5484633 0,9.30134035 0,8 C0,4.09685446 3.61299687,1 8,1 Z M8,3 C4.65501663,3 2,5.27572854 2,8 C2,8.96527888 2.32979229,9.89144737 2.9473786,10.6926759 L3.15535534,10.9624955 L3.15535534,12.43385 L4.69117505,12.1779485 L4.97870564,12.3183586 C5.88743413,12.7621189 6.92140263,13 8,13 C11.3449834,13 14,10.7242715 14,8 C14,5.27572854 11.3449834,3 8,3 Z M5,7 C5.55228475,7 6,7.44771525 6,8 C6,8.55228475 5.55228475,9 5,9 C4.44771525,9 4,8.55228475 4,8 C4,7.44771525 4.44771525,7 5,7 Z M8,7 C8.55228475,7 9,7.44771525 9,8 C9,8.55228475 8.55228475,9 8,9 C7.44771525,9 7,8.55228475 7,8 C7,7.44771525 7.44771525,7 8,7 Z M11,7 C11.5522847,7 12,7.44771525 12,8 C12,8.55228475 11.5522847,9 11,9 C10.4477153,9 10,8.55228475 10,8 C10,7.44771525 10.4477153,7 11,7 Z" id="Combined-Shape" fill="#0052D9" fill-rule="nonzero"></path>
            <rect id="矩形" x="0" y="0" width="16" height="16"></rect>
        </g>
    </g>
</svg>